<svg xmlns="http://www.w3.org/2000/svg" viewBox="0 0 1674.2 512">
  <defs>
    <linearGradient id="a" x1="1290.5" y1="565.9" x2="1589.5" y2="159.9" gradientTransform="matrix(1 0 0 -1 0 510)" gradientUnits="userSpaceOnUse">
      <stop offset="0" stop-color="#41d1ff"/>
      <stop offset="1" stop-color="#bd34fe"/>
    </linearGradient>
    <linearGradient id="b" x1="1431.5" y1="504.2" x2="1485.6" y2="133.2" gradientTransform="matrix(1 0 0 -1 0 510)" gradientUnits="userSpaceOnUse">
      <stop offset="0" stop-color="#ffea83"/>
      <stop offset=".1" stop-color="#ffdd35"/>
      <stop offset="1" stop-color="#ffa800"/>
    </linearGradient>
  </defs>
  <rect x="621" width="512" height="512" rx="50" fill="#3178c6"/>
  <path d="M938 407v50c8 4 18 7 29 9a189 189 0 0 0 35 3 163 163 0 0 0 34-3 86 86 0 0 0 28-11c8-5 15-12 19-21a76 76 0 0 0 7-32 66 66 0 0 0-4-24 47 47 0 0 0-12-18 79 79 0 0 0-18-14 223 223 0 0 0-24-12l-18-8a78 78 0 0 1-13-8 36 36 0 0 1-8-8 18 18 0 0 1-3-10 17 17 0 0 1 2-9 23 23 0 0 1 8-7 39 39 0 0 1 12-5 70 70 0 0 1 16-2 92 92 0 0 1 13 1 107 107 0 0 1 14 3 111 111 0 0 1 14 5 66 66 0 0 1 12 7v-47a124 124 0 0 0-25-6 201 201 0 0 0-31-3 151 151 0 0 0-34 4 79 79 0 0 0-28 12 58 58 0 0 0-19 21c-5 9-7 18-7 30 0 15 4 28 13 38 8 11 22 19 39 27l19 9a85 85 0 0 1 15 8 37 37 0 0 1 10 9 20 20 0 0 1 4 12 19 19 0 0 1-3 9 20 20 0 0 1-7 8 41 41 0 0 1-12 4 73 73 0 0 1-17 2 91 91 0 0 1-32-6 95 95 0 0 1-30-17Zm-84-123h64v-41H739v41h64v183h51Z" fill="#fff" fill-rule="evenodd"/>
  <path d="m1673 76-241 429a13 13 0 0 1-22 0L1165 76a13 13 0 0 1 13-20l241 43a13 13 0 0 0 4 0l236-42a13 13 0 0 1 14 19Z" fill="url(#a)"/>
  <path d="m1533 0-178 35a7 7 0 0 0-5 6l-11 185a7 7 0 0 0 8 6l50-11a7 7 0 0 1 8 8l-15 72a7 7 0 0 0 8 7l31-9a7 7 0 0 1 8 8l-23 113c-2 7 8 11 12 4l2-4 145-289a7 7 0 0 0-7-9l-51 10a7 7 0 0 1-8-8l34-116a7 7 0 0 0-8-8Z" fill="url(#b)"/>
  <path d="m364 0-68 118L227 0H0l296 512L591 0Z" fill="#41b883"/>
  <path d="m364 0-68 118L227 0H118l178 307L473 0Z" fill="#34495e"/>
</svg>
